<svg width="102" height="24" viewBox="0 0 102 24" fill="none" xmlns="http://www.w3.org/2000/svg">
<path d="M31.7715 10.6387C31.7715 9.01107 32.1491 7.70573 32.9043 6.72266C33.6595 5.73307 34.6719 5.23828 35.9414 5.23828C37.0612 5.23828 37.9662 5.62891 38.6563 6.41016V1H41.0293V16H38.8809L38.7637 14.9062C38.054 15.7656 37.1068 16.1953 35.9219 16.1953C34.6849 16.1953 33.6823 15.6973 32.9141 14.7012C32.1523 13.7051 31.7715 12.3509 31.7715 10.6387ZM34.1445 10.8438C34.1445 11.918 34.3496 12.7578 34.7598 13.3633C35.1764 13.9622 35.7656 14.2617 36.5274 14.2617C37.4974 14.2617 38.207 13.8288 38.6563 12.9629V8.45117C38.2201 7.60482 37.5169 7.18164 36.5469 7.18164C35.7787 7.18164 35.1862 7.48763 34.7695 8.09961C34.3529 8.70508 34.1445 9.61979 34.1445 10.8438Z" fill="#3E4B50"/>
<path d="M49.8184 16C49.7142 15.7982 49.6231 15.4694 49.5449 15.0137C48.7897 15.8014 47.8652 16.1953 46.7715 16.1953C45.7103 16.1953 44.8444 15.8926 44.1738 15.2871C43.5033 14.6816 43.168 13.9329 43.168 13.041C43.168 11.9147 43.5846 11.0521 44.418 10.4531C45.2578 9.84766 46.4557 9.54492 48.0117 9.54492H49.4668V8.85156C49.4668 8.30469 49.3138 7.86849 49.0078 7.54297C48.7018 7.21094 48.2363 7.04492 47.6113 7.04492C47.071 7.04492 46.6283 7.18164 46.2832 7.45508C45.9382 7.72201 45.7656 8.0638 45.7656 8.48047H43.3926C43.3926 7.90104 43.5846 7.36068 43.9688 6.85938C44.3529 6.35156 44.8737 5.95443 45.5313 5.66797C46.1953 5.38151 46.9343 5.23828 47.7481 5.23828C48.985 5.23828 49.9714 5.55078 50.707 6.17578C51.4427 6.79427 51.8203 7.66667 51.8399 8.79297V13.5586C51.8399 14.5091 51.9733 15.2676 52.2402 15.834V16H49.8184ZM47.2109 14.291C47.6797 14.291 48.1191 14.1771 48.5293 13.9492C48.946 13.7214 49.2585 13.4154 49.4668 13.0312V11.0391H48.1875C47.3086 11.0391 46.6478 11.1921 46.2051 11.498C45.7624 11.804 45.541 12.237 45.541 12.7969C45.541 13.2526 45.6908 13.6172 45.9902 13.8906C46.2962 14.1576 46.7031 14.291 47.2109 14.291Z" fill="#3E4B50"/>
<path d="M57.2988 2.86523V5.43359H59.1641V7.19141H57.2988V13.0898C57.2988 13.4935 57.377 13.7865 57.5332 13.9688C57.696 14.1445 57.9824 14.2324 58.3926 14.2324C58.666 14.2324 58.9427 14.1999 59.2227 14.1348V15.9707C58.6823 16.1204 58.1615 16.1953 57.6602 16.1953C55.8372 16.1953 54.9258 15.1895 54.9258 13.1777V7.19141H53.1875V5.43359H54.9258V2.86523H57.2988Z" fill="#3E4B50"/>
<path d="M67.2988 16C67.1947 15.7982 67.1035 15.4694 67.0254 15.0137C66.2702 15.8014 65.3457 16.1953 64.252 16.1953C63.1908 16.1953 62.3249 15.8926 61.6543 15.2871C60.9837 14.6816 60.6484 13.9329 60.6484 13.041C60.6484 11.9147 61.0651 11.0521 61.8984 10.4531C62.7383 9.84766 63.9362 9.54492 65.4922 9.54492H66.9473V8.85156C66.9473 8.30469 66.7943 7.86849 66.4883 7.54297C66.1823 7.21094 65.7168 7.04492 65.0918 7.04492C64.5514 7.04492 64.1087 7.18164 63.7637 7.45508C63.4186 7.72201 63.2461 8.0638 63.2461 8.48047H60.8731C60.8731 7.90104 61.0651 7.36068 61.4492 6.85938C61.8333 6.35156 62.3542 5.95443 63.0117 5.66797C63.6758 5.38151 64.4147 5.23828 65.2285 5.23828C66.4655 5.23828 67.4518 5.55078 68.1875 6.17578C68.9232 6.79427 69.3008 7.66667 69.3203 8.79297V13.5586C69.3203 14.5091 69.4538 15.2676 69.7207 15.834V16H67.2988ZM64.6914 14.291C65.1602 14.291 65.5996 14.1771 66.0098 13.9492C66.4264 13.7214 66.7389 13.4154 66.9473 13.0312V11.0391H65.668C64.7891 11.0391 64.1283 11.1921 63.6856 11.498C63.2428 11.804 63.0215 12.237 63.0215 12.7969C63.0215 13.2526 63.1712 13.6172 63.4707 13.8906C63.7767 14.1576 64.1836 14.291 64.6914 14.291Z" fill="#3E4B50"/>
<path d="M73.9297 2.72852V5.43359H76.1172V6.39062H73.9297V13.4316C73.9297 14.0176 74.0339 14.4538 74.2422 14.7402C74.457 15.0267 74.8119 15.1699 75.3066 15.1699C75.502 15.1699 75.8177 15.1374 76.2539 15.0723L76.3027 16.0293C75.9968 16.14 75.5801 16.1953 75.0527 16.1953C74.252 16.1953 73.6693 15.9642 73.3047 15.502C72.9401 15.0332 72.7578 14.3464 72.7578 13.4414V6.39062H70.8145V5.43359H72.7578V2.72852H73.9297Z" fill="#3E4B50"/>
<path d="M79.8477 16H78.6758V5.43359H79.8477V16ZM78.4707 2.37695C78.4707 2.1556 78.5423 1.97005 78.6856 1.82031C78.8288 1.66406 79.0241 1.58594 79.2715 1.58594C79.5189 1.58594 79.7142 1.66406 79.8574 1.82031C80.0072 1.97005 80.082 2.1556 80.082 2.37695C80.082 2.59831 80.0072 2.78385 79.8574 2.93359C79.7142 3.08333 79.5189 3.1582 79.2715 3.1582C79.0241 3.1582 78.8288 3.08333 78.6856 2.93359C78.5423 2.78385 78.4707 2.59831 78.4707 2.37695Z" fill="#3E4B50"/>
<path d="M82.5625 10.6191C82.5625 8.97852 82.9271 7.67318 83.6563 6.70312C84.3919 5.72656 85.388 5.23828 86.6445 5.23828C88.0703 5.23828 89.1576 5.80143 89.9063 6.92773V1H91.0684V16H89.9746L89.9258 14.5938C89.1771 15.6615 88.0768 16.1953 86.625 16.1953C85.4076 16.1953 84.4245 15.707 83.6758 14.7305C82.9336 13.7474 82.5625 12.4225 82.5625 10.7559V10.6191ZM83.7441 10.8242C83.7441 12.1719 84.0143 13.2363 84.5547 14.0176C85.0951 14.7923 85.8568 15.1797 86.8399 15.1797C88.2787 15.1797 89.3008 14.5449 89.9063 13.2754V8.31445C89.3008 6.94076 88.2852 6.25391 86.8594 6.25391C85.8763 6.25391 85.1113 6.64128 84.5645 7.41602C84.0176 8.18424 83.7441 9.32031 83.7441 10.8242Z" fill="#3E4B50"/>
<path d="M97.4941 14.3203L100.58 5.43359H101.84L97.3281 17.7969L97.0938 18.3438C96.5143 19.6263 95.6191 20.2676 94.4082 20.2676C94.1283 20.2676 93.8288 20.222 93.5098 20.1309L93.5 19.1641L94.1055 19.2227C94.6784 19.2227 95.1406 19.0794 95.4922 18.793C95.8503 18.513 96.153 18.028 96.4004 17.3379L96.918 15.9121L92.9336 5.43359H94.2129L97.4941 14.3203Z" fill="#3E4B50"/>
<path d="M21.1094 1.21875C21.4376 0.703125 21.1094 0 20.5001 0H1.75007C1.32819 0 0.953192 0.375 1.00007 0.796875C1.60944 17.3438 22.1876 11.1094 16.5157 22.9688C16.2813 23.4375 16.6563 24 17.2188 24H18.4844C18.8594 24 19.2344 23.8594 19.5157 23.625C34.5157 10.1719 13.0001 12.8438 21.1094 1.21875ZM19.0938 1.5C18.4844 2.625 18.0626 3.60938 17.8751 4.5H3.10944C2.82819 3.65625 2.64069 2.625 2.54694 1.5H19.0938ZM3.71882 6H17.6876C17.6876 7.17188 18.0157 8.15625 18.4844 9H6.06257C5.12507 8.20312 4.32819 7.21875 3.71882 6ZM8.17194 10.5H19.5626C20.0782 11.1094 20.6407 11.6719 21.1563 12.1875C21.6719 12.6562 22.0938 13.125 22.4688 13.5H14.4532C13.7032 13.125 12.9532 12.7969 12.1094 12.4219C10.7969 11.8594 9.43757 11.25 8.17194 10.5ZM16.8438 15H23.3594C23.4063 15.2344 23.5001 15.4219 23.5001 15.6562C23.4532 16.3125 23.1719 17.1094 22.6094 18H18.8126C18.7657 17.8125 18.7188 17.625 18.6719 17.4844C18.2969 16.4531 17.6876 15.7031 16.8438 15ZM18.4844 22.5H18.3438C18.7657 21.4219 18.9532 20.4375 19.0001 19.5H21.4844C20.6876 20.4375 19.7032 21.4219 18.4844 22.5Z" fill="#3E4B50"/>
</svg>
